

Release info:

General
Format                                   : Matroska
Format version                           : Version 2
File size                                : 690 MiB
Duration                                 : 1h 34mn
Overall bit rate mode                    : Variable
Overall bit rate                         : 1 026 Kbps


Video
ID                                       : 1
Format                                   : MPEG-4 Visual
Format profile                           : Advanced Simple@L5
Format settings, BVOP                    : Yes
Format settings, QPel                    : No
Format settings, GMC                     : No warppoints
Format settings, Matrix                  : Default (H.263)
Codec ID                                 : V_MS/VFW/FOURCC / XVID
Codec ID/Hint                            : XviD
Duration                                 : 1h 34mn
Bit rate                                 : 877 Kbps
Width                                    : 624 pixels
Height                                   : 352 pixels
Display aspect ratio                     : 16:9
Frame rate mode                          : Constant
Frame rate                               : 23.976 fps
Color space                              : YUV
Chroma subsampling                       : 4:2:0
Bit depth                                : 8 bits
Scan type                                : Progressive
Compression mode                         : Lossy
Bits/(Pixel*Frame)                       : 0.167
Stream size                              : 590 MiB (86%)
Writing library                          : XviD 64
Language                                 : English
Default                                  : Yes
Forced                                   : No

Audio
ID                                       : 2
Format                                   : MPEG Audio
Format version                           : Version 1
Format profile                           : Layer 3
Mode                                     : Joint stereo
Mode extension                           : MS Stereo
Muxing mode                              : Header stripping
Codec ID                                 : A_MPEG/L3
Codec ID/Hint                            : MP3
Duration                                 : 1h 33mn
Bit rate mode                            : Variable
Bit rate                                 : 128 Kbps
Channel(s)                               : 2 channels
Sampling rate                            : 48.0 KHz
Compression mode                         : Lossy
Stream size                              : 85.3 MiB (12%)
Language                                 : English
Default                                  : Yes
Forced                                   : No



Source:
credit to original movie ripper iguana (Thanks)

IMDB Info:

The creation of filmmaker Michael Emanuel, SCARY OR DIE tells five interwoven horror stories that take place in and around the "City of Angels"...
Directors: Bob Badway, Michael Emanuel, 
Writers: Michael Emanuel, Bob Badway
Stars: Domiziano Arcangeli, Corbin Bleu and Shannon Bobo

Genres: Horror 
http://www.imdb.com/title/tt1833879/

Screen Shot:

 
http://www.shotpix.com/images/06243418331164404794.png 
http://www.shotpix.com/images/88264674538526557491.png 
http://www.shotpix.com/images/39899364016477470856.png 
http://www.shotpix.com/images/68346768345270250425.png 
http://www.shotpix.com/images/23318498920223479706.png 
http://www.shotpix.com/images/90001967381245016922.png
